<svg id="color_line" height="512" viewBox="0 0 74 74" width="512" xmlns="http://www.w3.org/2000/svg" data-name="color line"><path d="m8.628 16.676h56.744v40.648h-56.744z" fill="#6fc666" transform="matrix(0 1 -1 0 74 0)"/><path d="m57.32 8.63v56.74h-2.987v-53.89h-37.653v-2.85z" fill="#65b54e"/><path d="m21.458 63.02h-2a.5.5 0 0 1 -.5-.5v-2a.5.5 0 0 1 1 0v1.5h1.5a.5.5 0 0 1 0 1z" fill="#323c6b"/><path d="m19.458 56.743a.5.5 0 0 1 -.5-.5v-4.276a.5.5 0 0 1 1 0v4.276a.5.5 0 0 1 -.5.5zm0-8.553a.5.5 0 0 1 -.5-.5v-4.275a.5.5 0 0 1 1 0v4.275a.5.5 0 0 1 -.5.5zm0-8.552a.5.5 0 0 1 -.5-.5v-4.276a.5.5 0 0 1 1 0v4.276a.5.5 0 0 1 -.5.5zm0-8.553a.5.5 0 0 1 -.5-.5v-4.276a.5.5 0 0 1 1 0v4.276a.5.5 0 0 1 -.5.5zm0-8.552a.5.5 0 0 1 -.5-.5v-4.276a.5.5 0 0 1 1 0v4.276a.5.5 0 0 1 -.5.5z" fill="#323c6b"/><path d="m19.458 13.98a.5.5 0 0 1 -.5-.5v-2a.5.5 0 0 1 .5-.5h2a.5.5 0 0 1 0 1h-1.5v1.5a.5.5 0 0 1 -.5.5z" fill="#323c6b"/><path d="m48.1 11.98h-4.44a.5.5 0 0 1 0-1h4.44a.5.5 0 0 1 0 1zm-8.881 0h-4.439a.5.5 0 0 1 0-1h4.44a.5.5 0 0 1 0 1zm-8.881 0h-4.438a.5.5 0 0 1 0-1h4.44a.5.5 0 0 1 0 1z" fill="#323c6b"/><path d="m54.542 13.98a.5.5 0 0 1 -.5-.5v-1.5h-1.5a.5.5 0 0 1 0-1h2a.5.5 0 0 1 .5.5v2a.5.5 0 0 1 -.5.5z" fill="#323c6b"/><path d="m54.542 56.743a.5.5 0 0 1 -.5-.5v-4.276a.5.5 0 1 1 1 0v4.276a.5.5 0 0 1 -.5.5zm0-8.552a.5.5 0 0 1 -.5-.5v-4.276a.5.5 0 0 1 1 0v4.276a.5.5 0 0 1 -.5.5zm0-8.553a.5.5 0 0 1 -.5-.5v-4.276a.5.5 0 0 1 1 0v4.276a.5.5 0 0 1 -.5.5zm0-8.553a.5.5 0 0 1 -.5-.5v-4.275a.5.5 0 1 1 1 0v4.276a.5.5 0 0 1 -.5.499zm0-8.552a.5.5 0 0 1 -.5-.5v-4.276a.5.5 0 0 1 1 0v4.276a.5.5 0 0 1 -.5.5z" fill="#323c6b"/><path d="m54.542 63.02h-2a.5.5 0 0 1 0-1h1.5v-1.5a.5.5 0 0 1 1 0v2a.5.5 0 0 1 -.5.5z" fill="#323c6b"/><path d="m48.1 63.02h-4.44a.5.5 0 0 1 0-1h4.44a.5.5 0 0 1 0 1zm-8.881 0h-4.439a.5.5 0 0 1 0-1h4.44a.5.5 0 0 1 0 1zm-8.881 0h-4.438a.5.5 0 0 1 0-1h4.44a.5.5 0 0 1 0 1z" fill="#323c6b"/><path d="m14.246 22.169h45.507v29.663h-45.507z" fill="#eeefee" transform="matrix(0 1 -1 0 74 0)"/><path d="m49.12 14.25h2.71v45.5h-2.71z" fill="#e1e6e9"/><path d="m37 17.863s-1.021 1.7-4.786 3.039c-2.608.953-3.47 4.309-2.109 6.623a8.148 8.148 0 0 0 -3.493 4.445v24.167h20.776v-24.166a8.148 8.148 0 0 0 -3.493-4.445c1.361-2.313.5-5.67-2.109-6.623-3.765-1.339-4.786-3.04-4.786-3.04z" fill="#6fc666"/><path d="m47.39 31.97v24.17h-2.69v-23.17a8.141 8.141 0 0 0 -3.49-4.44c1.36-2.32.5-5.68-2.11-6.63a12.084 12.084 0 0 1 -4.12-2.29 6.092 6.092 0 0 0 2.02-1.75s1.02 1.7 4.79 3.04c2.6.95 3.47 4.31 2.1 6.63a8.112 8.112 0 0 1 3.5 4.44z" fill="#65b54e"/><g fill="#323c6b"><path d="m19.875 9.128a.5.5 0 0 1 -.5-.5v-5.628a.5.5 0 0 1 1 0v5.628a.5.5 0 0 1 -.5.5z"/><path d="m25.583 9.128a.5.5 0 0 1 -.5-.5v-4.635a.5.5 0 1 1 1 0v4.635a.5.5 0 0 1 -.5.5z"/><path d="m31.292 9.128a.5.5 0 0 1 -.5-.5v-5.628a.5.5 0 0 1 1 0v5.628a.5.5 0 0 1 -.5.5z"/><path d="m37 9.128a.5.5 0 0 1 -.5-.5v-4.635a.5.5 0 0 1 1 0v4.635a.5.5 0 0 1 -.5.5z"/><path d="m42.708 9.128a.5.5 0 0 1 -.5-.5v-5.628a.5.5 0 0 1 1 0v5.628a.5.5 0 0 1 -.5.5z"/><path d="m48.417 9.128a.5.5 0 0 1 -.5-.5v-4.635a.5.5 0 0 1 1 0v4.635a.5.5 0 0 1 -.5.5z"/><path d="m54.125 9.128a.5.5 0 0 1 -.5-.5v-5.628a.5.5 0 0 1 1 0v5.628a.5.5 0 0 1 -.5.5z"/><path d="m54.125 71.5a.5.5 0 0 1 -.5-.5v-5.628a.5.5 0 0 1 1 0v5.628a.5.5 0 0 1 -.5.5z"/><path d="m48.417 70.507a.5.5 0 0 1 -.5-.5v-4.635a.5.5 0 0 1 1 0v4.636a.5.5 0 0 1 -.5.499z"/><path d="m42.708 71.5a.5.5 0 0 1 -.5-.5v-5.628a.5.5 0 0 1 1 0v5.628a.5.5 0 0 1 -.5.5z"/><path d="m37 70.507a.5.5 0 0 1 -.5-.5v-4.635a.5.5 0 0 1 1 0v4.636a.5.5 0 0 1 -.5.499z"/><path d="m31.292 71.5a.5.5 0 0 1 -.5-.5v-5.628a.5.5 0 0 1 1 0v5.628a.5.5 0 0 1 -.5.5z"/><path d="m25.583 70.507a.5.5 0 0 1 -.5-.5v-4.635a.5.5 0 0 1 1 0v4.636a.5.5 0 0 1 -.5.499z"/><path d="m19.875 71.5a.5.5 0 0 1 -.5-.5v-5.628a.5.5 0 0 1 1 0v5.628a.5.5 0 0 1 -.5.5z"/><path d="m13.676 11.583a.5.5 0 0 1 -.5-.5v-5.455a.5.5 0 0 1 .5-.5h2.616a.5.5 0 0 1 0 1h-2.116v4.955a.5.5 0 0 1 -.5.5z"/><path d="m60.324 34.563a.5.5 0 0 1 -.5-.5v-.563a.5.5 0 0 1 1 0v.563a.5.5 0 0 1 -.5.5z"/><path d="m60.324 44.5a.5.5 0 0 1 -.5-.5v-7.625a.5.5 0 0 1 1 0v7.625a.5.5 0 0 1 -.5.5z"/><path d="m13.676 14.083a.5.5 0 0 1 -.5-.5v-.5a.5.5 0 0 1 1 0v.5a.5.5 0 0 1 -.5.5z"/><path d="m57.324 65.872h-40.648a.5.5 0 0 1 -.5-.5v-56.744a.5.5 0 0 1 .5-.5h40.648a.5.5 0 0 1 .5.5v56.744a.5.5 0 0 1 -.5.5zm-40.148-1h39.648v-55.744h-39.648z"/><path d="m47.388 56.637h-20.776a.5.5 0 0 1 -.5-.5v-24.166a.5.5 0 0 1 .013-.115 8.3 8.3 0 0 1 3.334-4.484 5.409 5.409 0 0 1 -.176-4.088 4.6 4.6 0 0 1 2.76-2.851c3.511-1.248 4.521-2.814 4.531-2.83a.459.459 0 0 1 .43-.237.5.5 0 0 1 .423.237c.016.026 1.031 1.586 4.526 2.829a4.606 4.606 0 0 1 2.764 2.852 5.409 5.409 0 0 1 -.176 4.088 8.3 8.3 0 0 1 3.334 4.484.5.5 0 0 1 .013.115v24.166a.5.5 0 0 1 -.5.5zm-20.275-1h19.775v-23.607a7.713 7.713 0 0 0 -3.276-4.094.5.5 0 0 1 -.147-.665 4.367 4.367 0 0 0 .312-3.651 3.624 3.624 0 0 0 -2.162-2.249 11.549 11.549 0 0 1 -4.615-2.718 11.563 11.563 0 0 1 -4.618 2.72 3.622 3.622 0 0 0 -2.158 2.247 4.367 4.367 0 0 0 .312 3.651.5.5 0 0 1 -.147.665 7.713 7.713 0 0 0 -3.276 4.094z"/><path d="m51.832 60.253h-29.664a.5.5 0 0 1 -.5-.5v-45.506a.5.5 0 0 1 .5-.5h29.664a.5.5 0 0 1 .5.5v45.506a.5.5 0 0 1 -.5.5zm-29.163-1h28.663v-44.506h-28.664z"/></g><path d="m36.222 52.377-6.131.03a.681.681 0 0 0 -.033 1.359l6.131-.03a.681.681 0 0 0 .033-1.359z" fill="#fff"/><path d="m38.573 52.367h-.144a.671.671 0 0 0 -.661.671.648.648 0 0 0 .607.688h.149a.656.656 0 0 0 .661-.653.665.665 0 0 0 -.612-.706z" fill="#fff"/></svg>